<?xml version="1.0" encoding="UTF-8" standalone="no"?>
<!-- Created with Inkscape (http://www.inkscape.org/) -->

<svg
   xmlns:dc="http://purl.org/dc/elements/1.1/"
   xmlns:cc="http://creativecommons.org/ns#"
   xmlns:rdf="http://www.w3.org/1999/02/22-rdf-syntax-ns#"
   xmlns:svg="http://www.w3.org/2000/svg"
   xmlns="http://www.w3.org/2000/svg"
   xmlns:sodipodi="http://sodipodi.sourceforge.net/DTD/sodipodi-0.dtd"
   xmlns:inkscape="http://www.inkscape.org/namespaces/inkscape"
   width="512"
   height="512"
   viewBox="0 0 135.46666 135.46667"
   version="1.1"
   id="svg8"
   inkscape:version="0.92.2 (5c3e80d, 2017-08-06)"
   sodipodi:docname="Icon.svg"
   inkscape:export-filename="C:\Users\gpriaulx\bitmap.png"
   inkscape:export-xdpi="12.59"
   inkscape:export-ydpi="12.59">
  <defs
     id="defs2" />
  <sodipodi:namedview
     id="base"
     pagecolor="#ffffff"
     bordercolor="#666666"
     borderopacity="1.0"
     inkscape:pageopacity="0.0"
     inkscape:pageshadow="2"
     inkscape:zoom="1.4"
     inkscape:cx="226.89621"
     inkscape:cy="233.56198"
     inkscape:document-units="mm"
     inkscape:current-layer="layer1"
     showgrid="false"
     inkscape:window-width="1500"
     inkscape:window-height="937"
     inkscape:window-x="-8"
     inkscape:window-y="-8"
     inkscape:window-maximized="1"
     units="px" />
  <metadata
     id="metadata5">
    <rdf:RDF>
      <cc:Work
         rdf:about="">
        <dc:format>image/svg+xml</dc:format>
        <dc:type
           rdf:resource="http://purl.org/dc/dcmitype/StillImage" />
        <dc:title></dc:title>
      </cc:Work>
    </rdf:RDF>
  </metadata>
  <g
     inkscape:label="Layer 1"
     inkscape:groupmode="layer"
     id="layer1"
     transform="translate(0,-161.53332)">
    <path
       style="opacity:1;fill:#6b7fd7;fill-opacity:1;stroke:none;stroke-width:1.04163802;stroke-opacity:1"
       d="M 67 12 C 36.530009 12 12 36.530016 12 67 L 12 445 C 12 475.46998 36.530009 500 67 500 L 445 500 C 475.46998 500 500 475.46998 500 445 L 500 67 C 500 36.530016 475.46998 12 445 12 L 67 12 z M 78.896484 106 L 143.65234 106 C 150.19807 106 156.43315 106.30844 162.35547 106.92383 C 168.43364 107.38536 175.52468 108.53861 183.62891 110.38477 C 191.88899 112.07708 200.22665 115.38553 208.64258 120.30859 C 217.21436 125.07783 224.46049 130.99925 230.38281 138.07617 C 236.30514 145.15309 240.82635 153.38493 243.94336 162.76953 C 247.21622 172.0003 248.85156 182.23015 248.85156 193.46094 C 248.85156 208.384 246.35831 221.84572 241.37109 233.8457 C 236.38387 245.84571 229.21432 256.07752 219.86328 264.53906 C 210.6681 273.0006 199.29142 279.53893 185.73242 284.1543 C 172.32927 288.76967 156.27629 291.07617 137.57422 291.07617 L 103.20898 291.07617 L 103.20898 398.61523 C 103.20898 399.846 102.82027 400.92261 102.04102 401.8457 C 101.41761 402.76877 100.32609 403.5389 98.767578 404.1543 C 97.364924 404.61583 95.338914 405.0009 92.689453 405.30859 C 90.195845 405.77013 87.001734 406 83.105469 406 C 79.209203 406 75.936571 405.77013 73.287109 405.30859 C 70.793501 405.0009 68.765538 404.61583 67.207031 404.1543 C 65.648527 403.5389 64.55895 402.76877 63.935547 401.8457 C 63.312146 400.92261 63 399.846 63 398.61523 L 63 123.07617 C 63 116.92232 64.637294 112.53921 67.910156 109.92383 C 71.183018 107.30845 74.844369 106 78.896484 106 z M 283.25195 106 C 287.14822 106 290.34428 106.23183 292.83789 106.69336 C 295.48735 107.00106 297.51336 107.38417 298.91602 107.8457 C 300.47452 108.4611 301.56605 109.23123 302.18945 110.1543 C 302.96871 111.07739 303.35742 112.154 303.35742 113.38477 L 303.35742 220.92383 L 337.72266 220.92383 C 356.42473 220.92383 372.4777 223.23033 385.88086 227.8457 C 399.43986 232.4611 410.81655 238.9994 420.01172 247.46094 C 429.36276 255.92248 436.53229 266.15431 441.51953 278.1543 C 446.50674 290.15428 449 303.61597 449 318.53906 C 449 329.76982 447.36271 339.9997 444.08984 349.23047 C 440.97284 358.61507 436.45358 366.84691 430.53125 373.92383 C 424.60892 381.00075 417.3628 386.92217 408.79102 391.69141 C 400.37509 396.6145 392.03743 399.92294 383.77734 401.61523 C 375.67311 403.46139 368.58013 404.61464 362.50195 405.07617 C 356.57963 405.69156 350.34651 406 343.80078 406 L 279.04492 406 C 274.99281 406 271.3295 404.69155 268.05664 402.07617 C 264.78378 399.46079 263.14844 395.07768 263.14844 388.92383 L 263.14844 113.38477 C 263.14844 112.154 263.46058 111.07739 264.08398 110.1543 C 264.70739 109.23123 265.79696 108.4611 267.35547 107.8457 C 268.91398 107.38417 270.93999 107.00106 273.43359 106.69336 C 276.08306 106.23183 279.35569 106 283.25195 106 z M 103.20898 138.76953 L 103.20898 258.53906 L 139.44531 258.53906 C 151.60166 258.53906 161.65318 257.00074 169.60156 253.92383 C 177.70579 250.84689 184.48468 246.61507 189.93945 241.23047 C 195.39422 235.69201 199.52477 229.15371 202.33008 221.61523 C 205.13539 213.92295 206.53906 205.61448 206.53906 196.69141 C 206.53906 184.53756 204.20091 174.38431 199.52539 166.23047 C 195.00572 158.07663 189.31641 152 182.45898 148 C 175.75741 144 168.7449 141.46169 161.41992 140.38477 C 154.25079 139.30784 147.23633 138.76953 140.37891 138.76953 L 103.20898 138.76953 z M 303.35742 253.46094 L 303.35742 373.23047 L 340.52734 373.23047 C 347.38477 373.23047 354.39923 372.69216 361.56836 371.61523 C 368.89334 370.53831 375.90584 368 382.60742 364 C 389.46484 360.00002 395.15416 353.92337 399.67383 345.76953 C 404.34936 337.61569 406.6875 327.46244 406.6875 315.30859 C 406.6875 306.38552 405.28384 298.07708 402.47852 290.38477 C 399.67322 282.84632 395.54267 276.30799 390.08789 270.76953 C 384.63313 265.38491 377.85424 261.15309 369.75 258.07617 C 361.80162 254.99923 351.7501 253.46094 339.59375 253.46094 L 303.35742 253.46094 z "
       transform="matrix(0.26458333,0,0,0.26458333,0,161.53332)"
       id="rect4504" />
    <g
       aria-label="P"
       transform="scale(1.0064935,0.9935484)"
       style="font-style:normal;font-variant:normal;font-weight:normal;font-stretch:normal;font-size:125.85810852px;line-height:1.25;font-family:Calibri;-inkscape-font-specification:'Calibri, Normal';font-variant-ligatures:normal;font-variant-caps:normal;font-variant-numeric:normal;font-feature-settings:normal;text-align:start;letter-spacing:0px;word-spacing:0px;writing-mode:lr-tb;text-anchor:start;fill:#000000;fill-opacity:1;stroke:none;stroke-width:3.14639258"
       id="text4508" />
    <g
       aria-label="P"
       transform="scale(1.0064936,-0.9935483)"
       style="font-style:normal;font-variant:normal;font-weight:normal;font-stretch:normal;font-size:125.85810852px;line-height:1.25;font-family:Calibri;-inkscape-font-specification:'Calibri, Normal';font-variant-ligatures:normal;font-variant-caps:normal;font-variant-numeric:normal;font-feature-settings:normal;text-align:start;letter-spacing:0px;word-spacing:0px;writing-mode:lr-tb;text-anchor:start;fill:#000000;fill-opacity:1;stroke:none;stroke-width:3.14639235"
       id="text4508-5" />
  </g>
</svg>
